# xmcd
#
# Track frame offsets:
#	150
#	12389
#	23227
#	35494
#	46881
#	57149
#	69245
#	79215
#	88321
#	98264
#	107002
#	115019
#	125334
#	135957
#
# Disc length: 1938 seconds
#
# Revision: 1
# Processed by: cddbd v1.5.2PL0 Copyright (c) Steve Scherf et al.
# Submitted via: audiograbber 1.83.01
#
DISCID=a607900e
DTITLE=Fats Domino - Million Sellers Vol.3
DYEAR=1968
DGENRE=Blues/Rock&Roll
TTITLE0=It Keeps Rainin'
TTITLE1=Reeling and Rocking
TTITLE2=The Sheik Of Araby
TTITLE3=Trouble In Mind
TTITLE4=La La
TTITLE5=Cheatin'
TTITLE6=My Blue Heaven
TTITLE7=My Girl Josephine
TTITLE8=Every Night About This Time
TTITLE9=I Hear You Knockin'
TTITLE10=Careless Love
TTITLE11=So Long
TTITLE12=My Happiness
TTITLE13=Your Cheatin' Heart
EXTD=
EXTT0=
EXTT1=
EXTT2=
EXTT3=
EXTT4=
EXTT5=
EXTT6=
EXTT7=
EXTT8=
EXTT9=
EXTT10=
EXTT11=
EXTT12=
EXTT13=
PLAYORDER=
